<?xml version="1.0" encoding="UTF-8" ?>
<!DOCTYPE svg PUBLIC "-//W3C//DTD SVG 1.1//EN" "http://www.w3.org/Graphics/SVG/1.1/DTD/svg11.dtd">
<svg width="986pt" height="900pt" viewBox="0 0 986 900" version="1.1" xmlns="http://www.w3.org/2000/svg">
<path fill="#ffffff" d=" M 0.00 0.00 L 986.00 0.00 L 986.00 900.00 L 0.00 900.00 L 0.00 0.00 Z" />
<path fill="#2b3235" d=" M 238.21 4.15 C 244.68 2.50 251.39 3.02 258.00 2.97 C 263.47 2.96 268.97 2.80 274.40 3.59 C 282.59 4.85 291.58 3.31 298.93 7.99 C 307.03 13.82 316.49 18.23 322.67 26.34 C 326.41 30.93 330.79 35.07 333.63 40.33 C 335.70 44.18 338.03 47.89 340.81 51.27 C 342.70 53.67 344.28 56.37 346.66 58.34 C 349.27 60.59 352.28 62.80 353.40 66.21 C 353.62 68.79 352.25 70.92 349.66 71.45 C 339.11 74.99 328.47 78.82 319.35 85.35 C 313.11 89.87 305.59 91.99 299.06 95.98 C 292.43 99.70 286.30 104.24 279.43 107.52 C 271.69 112.01 263.63 116.03 256.49 121.48 C 252.06 124.76 247.21 127.45 242.86 130.85 C 235.46 136.39 229.97 143.94 223.31 150.28 C 218.83 154.52 214.99 159.35 211.14 164.15 C 207.01 169.45 200.83 172.45 196.03 177.03 C 190.02 182.72 184.57 188.96 179.25 195.28 C 175.08 200.32 168.70 202.59 163.93 206.92 C 158.82 211.48 154.84 217.10 150.46 222.32 C 148.72 220.49 146.71 218.80 145.54 216.52 C 144.37 213.84 144.36 210.86 143.97 208.01 C 143.43 202.63 141.19 197.52 141.30 192.05 C 141.46 183.58 138.58 175.52 136.59 167.40 C 135.05 161.50 135.63 155.00 132.34 149.64 C 129.37 144.92 129.62 139.03 126.89 134.22 C 124.52 129.88 122.99 125.05 123.02 120.07 C 123.04 113.07 122.67 106.04 123.34 99.06 C 124.85 89.64 128.21 80.50 133.51 72.54 C 138.89 62.15 144.66 51.44 154.13 44.17 C 159.33 40.41 162.98 34.93 168.28 31.29 C 173.61 27.57 178.70 23.40 184.62 20.61 C 190.01 18.10 195.00 14.81 200.49 12.48 C 207.15 9.61 213.69 6.12 220.95 5.01 C 226.65 3.84 232.53 5.55 238.21 4.15 Z" />
<path fill="#cdcfd0" d=" M 298.93 7.99 C 306.97 9.34 314.66 12.83 320.83 18.17 C 325.35 22.08 328.58 27.17 332.00 32.00 C 335.97 37.86 339.99 44.07 340.81 51.27 C 338.03 47.89 335.70 44.18 333.63 40.33 C 330.79 35.07 326.41 30.93 322.67 26.34 C 316.49 18.23 307.03 13.82 298.93 7.99 Z" />
<path fill="#dee1e6" d=" M 441.99 50.01 C 448.84 49.65 455.08 46.18 461.95 45.92 C 469.96 45.49 477.98 45.86 486.00 45.75 C 493.60 45.72 501.33 45.33 508.78 47.20 C 517.55 49.55 526.77 48.23 535.59 50.34 C 544.09 52.38 552.83 53.72 560.96 57.08 C 566.47 59.39 572.49 59.69 578.30 60.72 C 584.62 61.80 590.55 64.64 597.00 65.04 C 615.61 65.94 633.45 73.02 649.10 82.83 C 658.02 88.10 667.76 91.73 677.29 95.71 C 685.90 99.28 694.88 102.15 702.76 107.23 C 709.04 111.30 716.31 113.93 721.67 119.32 C 724.29 121.66 726.60 124.80 730.22 125.59 C 738.14 127.30 745.92 129.82 754.07 130.22 C 752.58 131.26 751.18 132.43 749.79 133.59 C 753.74 140.20 752.80 148.89 758.35 154.63 C 762.65 159.44 766.90 164.41 769.59 170.35 C 772.97 177.80 777.74 184.53 780.89 192.09 C 783.06 196.85 784.44 202.07 787.80 206.21 C 790.90 210.11 794.31 213.78 797.06 217.96 C 801.94 224.95 805.05 233.01 810.15 239.86 C 815.79 247.57 819.53 256.42 824.41 264.58 C 827.83 270.76 832.36 276.25 835.49 282.59 C 839.11 289.80 842.49 297.15 845.19 304.75 C 847.46 311.00 847.69 317.99 851.34 323.71 C 854.01 328.07 856.94 332.38 858.43 337.34 C 860.83 345.19 860.88 353.59 863.81 361.31 C 866.44 368.38 866.51 376.00 866.57 383.44 C 868.58 382.60 870.61 381.76 872.54 380.73 C 870.72 384.39 869.10 388.25 869.04 392.40 C 868.79 399.87 866.91 407.29 868.01 414.78 C 869.78 429.78 870.64 444.86 872.03 459.89 C 873.88 475.85 875.70 491.89 875.27 507.99 C 875.06 518.13 875.79 528.32 874.48 538.42 C 873.01 548.80 871.25 559.16 868.44 569.27 C 865.82 578.72 867.12 588.77 864.16 598.13 C 862.21 604.31 860.70 610.62 858.90 616.85 C 856.67 624.38 857.26 632.41 854.98 639.93 C 851.44 652.20 845.07 663.66 843.33 676.44 C 842.33 683.95 839.42 690.97 837.16 698.15 C 832.57 712.77 827.39 727.64 817.90 739.89 C 812.61 747.49 805.84 753.85 799.18 760.22 C 788.62 770.15 774.97 776.80 760.56 778.66 C 744.92 782.09 728.86 780.62 713.00 780.92 C 702.36 781.12 691.70 780.50 681.09 781.30 C 661.87 783.27 642.68 785.79 623.75 789.65 C 616.19 791.04 608.54 792.12 601.16 794.34 C 587.44 799.25 574.38 805.78 561.51 812.58 C 556.27 815.29 550.74 817.46 545.86 820.83 C 539.02 825.43 531.61 829.13 524.81 833.81 C 509.14 844.59 491.13 851.16 474.77 860.75 C 468.22 864.40 460.76 865.71 453.64 867.78 C 449.27 869.03 445.42 871.51 441.27 873.28 C 436.72 875.23 431.67 875.03 426.87 875.85 C 420.02 876.79 414.08 881.21 407.03 881.14 C 392.02 881.24 377.01 881.02 362.00 881.22 C 357.68 881.24 353.26 881.23 349.13 879.86 C 344.81 878.42 340.78 876.29 336.68 874.36 C 329.21 870.62 320.94 868.65 313.79 864.23 C 307.36 860.31 299.78 858.10 294.38 852.64 C 290.24 848.42 285.93 844.31 282.51 839.46 C 279.33 834.99 274.76 831.84 270.61 828.37 C 266.20 824.61 260.48 822.79 256.23 818.82 C 250.83 813.87 246.00 808.34 240.77 803.23 C 236.38 798.90 230.54 796.11 227.11 790.84 C 222.21 784.16 218.50 776.75 214.44 769.56 C 211.38 764.72 206.48 761.52 202.73 757.29 C 199.04 753.20 196.72 748.07 192.79 744.19 C 188.78 740.18 184.30 736.69 180.22 732.76 C 173.58 726.38 166.14 720.89 159.68 714.30 C 151.58 706.24 142.04 699.92 132.94 693.10 C 127.79 689.48 121.86 687.07 117.03 682.98 C 110.02 677.11 102.56 671.66 94.26 667.74 C 90.29 665.85 86.44 663.70 82.76 661.29 C 75.54 656.59 67.98 652.26 61.69 646.29 C 56.85 641.77 52.26 636.95 48.48 631.49 C 43.21 623.84 35.30 618.11 31.61 609.37 C 26.88 598.27 25.70 585.96 26.06 574.00 C 26.36 560.47 25.22 546.91 26.45 533.41 C 27.06 525.74 27.30 518.03 28.47 510.42 C 30.04 500.36 30.69 490.18 30.79 480.01 C 30.69 465.37 33.41 450.87 36.74 436.68 C 39.51 428.38 41.55 419.84 44.72 411.69 C 47.62 404.01 53.18 397.76 56.42 390.25 C 62.63 376.84 66.52 362.47 73.49 349.40 C 80.43 336.41 86.05 322.79 92.81 309.72 C 96.31 302.39 100.57 295.48 104.50 288.40 C 109.42 279.70 113.73 270.63 119.52 262.46 C 125.11 254.53 131.13 246.87 137.80 239.81 C 142.76 234.54 145.86 227.88 150.46 222.32 C 154.84 217.10 158.82 211.48 163.93 206.92 C 168.70 202.59 175.08 200.32 179.25 195.28 C 184.57 188.96 190.02 182.72 196.03 177.03 C 200.83 172.45 207.01 169.45 211.14 164.15 C 214.99 159.35 218.83 154.52 223.31 150.28 C 229.97 143.94 235.46 136.39 242.86 130.85 C 247.21 127.45 252.06 124.76 256.49 121.48 C 263.63 116.03 271.69 112.01 279.43 107.52 C 286.30 104.24 292.43 99.70 299.06 95.98 C 305.59 91.99 313.11 89.87 319.35 85.35 C 328.47 78.82 339.11 74.99 349.66 71.45 C 352.25 70.92 353.62 68.79 353.40 66.21 C 353.86 67.41 354.29 68.61 354.73 69.82 C 363.30 68.90 370.50 63.71 378.79 61.79 C 388.11 59.47 397.59 57.84 407.02 55.97 C 418.64 53.78 430.15 50.75 441.99 50.01 Z" />
<path fill="#2b3235" d=" M 895.03 57.04 C 902.79 54.62 911.01 55.42 919.02 55.32 C 924.34 55.23 929.82 55.87 934.59 58.42 C 941.64 61.77 946.72 68.26 949.57 75.41 C 954.46 87.75 956.98 100.88 958.51 114.01 C 958.88 122.27 958.59 130.55 958.76 138.81 C 958.61 162.69 958.76 186.57 958.67 210.44 C 956.45 217.66 957.38 225.31 955.93 232.66 C 955.15 241.37 952.20 249.62 949.95 258.00 C 948.01 265.65 943.71 272.46 942.19 280.24 C 939.93 290.35 935.35 299.67 931.01 309.00 C 928.64 313.82 927.34 319.09 924.87 323.86 C 922.67 328.14 918.84 331.17 915.75 334.75 C 912.19 338.65 910.17 343.68 906.52 347.52 C 901.95 352.34 897.03 357.06 890.99 360.00 C 887.13 361.94 883.45 364.32 880.33 367.33 C 876.35 370.94 877.03 377.52 872.54 380.73 C 870.61 381.76 868.58 382.60 866.57 383.44 C 866.51 376.00 866.44 368.38 863.81 361.31 C 860.88 353.59 860.83 345.19 858.43 337.34 C 856.94 332.38 854.01 328.07 851.34 323.71 C 847.69 317.99 847.46 311.00 845.19 304.75 C 842.49 297.15 839.11 289.80 835.49 282.59 C 832.36 276.25 827.83 270.76 824.41 264.58 C 819.53 256.42 815.79 247.57 810.15 239.86 C 805.05 233.01 801.94 224.95 797.06 217.96 C 794.31 213.78 790.90 210.11 787.80 206.21 C 784.44 202.07 783.06 196.85 780.89 192.09 C 777.74 184.53 772.97 177.80 769.59 170.35 C 766.90 164.41 762.65 159.44 758.35 154.63 C 752.80 148.89 753.74 140.20 749.79 133.59 C 751.18 132.43 752.58 131.26 754.07 130.22 C 759.62 127.87 765.83 129.68 771.57 128.36 C 787.78 121.08 805.22 116.55 820.71 107.67 C 826.85 103.22 833.42 99.23 838.64 93.64 C 845.18 87.51 850.44 79.93 858.12 75.08 C 863.11 71.74 868.25 68.62 873.21 65.22 C 879.77 60.87 887.62 59.33 895.03 57.04 Z" />
<path fill="#dfdfdf" d=" M 958.76 138.81 C 960.14 145.58 961.51 152.43 961.41 159.36 C 961.21 166.06 961.91 172.75 961.63 179.46 C 961.43 189.94 962.59 200.82 958.69 210.82 L 958.67 210.44 C 958.76 186.57 958.61 162.69 958.76 138.81 Z" />
<path fill="#cdcecf" d=" M 332.09 267.07 C 339.22 265.53 346.94 264.06 353.95 266.94 C 359.57 268.85 364.77 273.01 366.12 279.04 C 352.97 270.33 335.96 269.44 320.98 273.08 C 324.29 270.44 327.88 267.96 332.09 267.07 Z" />
<path fill="#2b3235" d=" M 320.98 273.08 C 335.96 269.44 352.97 270.33 366.12 279.04 C 372.30 284.89 377.10 292.36 379.28 300.63 C 381.77 311.90 383.44 323.48 382.62 335.06 C 382.38 340.25 380.59 345.19 379.25 350.17 C 377.97 354.57 377.09 359.37 373.78 362.78 C 368.88 367.94 365.61 374.53 359.71 378.72 C 352.54 385.60 345.02 392.08 337.15 398.15 C 331.95 402.97 326.16 407.67 323.31 414.35 C 319.64 422.40 317.47 431.18 317.60 440.05 C 317.68 445.42 314.81 450.12 312.97 454.99 C 310.22 461.84 309.22 469.32 305.85 475.94 C 301.92 483.36 298.18 491.12 291.98 496.98 C 285.84 503.51 277.28 506.63 269.37 510.38 C 263.79 512.95 257.55 513.18 251.58 514.23 C 241.17 515.74 230.29 514.06 221.05 508.94 C 215.07 505.53 209.31 501.05 206.20 494.75 C 202.48 487.20 198.69 479.59 196.58 471.40 C 194.21 463.13 195.03 454.45 194.90 445.98 C 194.69 436.59 198.66 427.92 200.92 418.99 C 203.29 409.77 206.87 400.52 213.65 393.60 C 218.17 389.09 221.25 383.31 226.20 379.21 C 231.22 375.14 236.38 371.23 241.93 367.90 C 250.12 362.58 256.33 354.74 261.73 346.72 C 264.13 343.35 266.66 340.05 268.51 336.34 C 271.62 330.57 273.07 324.07 276.41 318.41 C 280.96 310.97 283.68 302.29 290.12 296.12 C 299.33 287.15 309.21 278.53 320.98 273.08 Z" />
<path fill="#2b3235" d=" M 592.40 307.72 C 602.22 307.03 612.56 306.31 621.93 309.99 C 626.65 311.79 631.17 314.07 635.71 316.28 C 641.35 318.98 645.92 323.35 650.37 327.64 C 656.30 333.10 657.30 341.55 660.05 348.74 C 661.81 361.15 658.77 374.05 662.59 386.25 C 665.61 395.68 669.46 404.90 674.48 413.46 C 677.18 418.17 679.05 423.34 682.21 427.80 C 686.63 434.05 691.49 440.01 695.31 446.68 C 698.59 452.52 702.79 458.00 704.49 464.59 C 707.75 476.12 706.43 488.19 706.68 500.00 C 706.45 508.36 707.57 516.96 705.17 525.11 C 702.06 536.06 696.12 546.11 688.66 554.65 C 684.27 559.74 677.79 562.02 671.97 564.99 C 663.13 570.07 652.68 568.46 642.95 568.69 C 634.68 568.91 627.04 565.36 619.00 564.04 C 614.28 563.28 609.57 562.02 605.48 559.48 C 597.83 554.78 590.31 549.20 585.66 541.34 C 581.49 534.62 579.93 526.78 577.77 519.29 C 575.72 512.30 573.69 505.29 572.12 498.17 C 570.18 489.02 572.53 479.55 570.46 470.42 C 569.20 464.72 568.20 458.96 566.96 453.25 C 565.99 447.29 566.65 441.18 565.44 435.25 C 563.64 425.76 562.21 415.98 557.75 407.28 C 554.18 399.54 548.43 392.52 547.59 383.77 C 546.94 376.19 547.44 368.58 547.28 360.98 C 546.97 346.79 553.54 332.55 564.89 323.93 C 573.34 317.52 581.63 309.76 592.40 307.72 Z" />
<path fill="#2b3235" d=" M 330.93 547.84 C 332.78 541.33 337.79 535.50 344.19 533.16 C 349.52 531.54 354.93 533.74 360.16 534.74 C 368.30 536.58 376.71 536.83 384.99 536.04 C 393.16 535.03 401.00 538.08 409.03 538.93 C 414.70 539.65 420.52 539.03 426.07 540.63 C 434.69 542.97 443.76 542.29 452.43 544.42 C 463.70 547.07 475.45 546.41 486.68 549.32 C 491.98 550.75 497.68 550.06 502.85 552.03 C 506.93 554.42 511.23 557.24 513.24 561.71 C 515.02 565.96 515.53 570.61 515.85 575.18 C 515.79 580.58 516.12 586.06 515.21 591.41 C 514.44 595.70 510.45 598.13 506.87 599.93 C 502.93 601.80 499.64 604.78 495.72 606.67 C 482.90 611.86 469.58 615.62 456.24 619.22 C 451.36 620.46 446.12 620.23 441.51 622.43 C 436.09 624.94 431.18 628.98 428.38 634.32 C 425.08 640.79 427.14 648.55 430.37 654.62 C 438.29 662.17 449.30 664.80 459.63 667.31 C 463.35 668.59 467.01 670.04 470.78 671.19 C 478.40 673.63 486.56 673.42 494.18 675.89 C 499.34 677.61 504.74 678.51 510.19 678.26 C 517.47 678.11 524.76 678.43 532.05 678.18 C 537.75 678.12 542.98 674.68 548.73 675.47 C 553.19 676.03 556.70 679.38 558.98 683.06 C 560.74 692.08 557.50 700.94 554.09 709.14 C 551.46 714.37 547.22 718.58 544.44 723.73 C 541.19 728.06 537.59 732.20 535.37 737.20 C 531.22 746.77 526.31 756.01 520.86 764.89 C 513.14 775.33 511.40 788.95 503.22 799.13 C 498.49 806.15 490.47 809.70 484.79 815.79 C 481.56 819.33 477.78 822.35 473.48 824.52 C 467.00 827.88 462.21 834.23 454.84 835.87 C 442.41 838.07 429.69 839.32 417.09 838.01 C 408.38 836.67 401.07 830.10 392.00 830.78 C 385.97 830.98 380.16 829.21 374.24 828.44 C 368.18 827.67 364.37 822.03 358.54 820.61 C 352.39 819.09 347.41 815.08 342.04 811.96 C 339.58 810.51 337.43 808.60 335.61 806.42 C 332.24 802.45 328.12 799.19 324.99 795.03 C 322.09 791.26 317.73 788.75 315.57 784.41 C 312.81 779.14 310.45 773.61 309.24 767.77 C 306.87 756.49 302.12 745.72 301.42 734.12 C 301.02 728.66 298.84 723.51 298.61 718.03 C 298.26 710.32 299.19 702.56 298.02 694.89 C 296.92 688.21 297.42 681.41 296.66 674.70 C 296.04 668.90 297.23 662.73 294.67 657.29 C 293.07 653.56 290.41 650.16 289.94 646.04 C 290.50 640.37 296.22 635.49 301.98 636.79 C 306.41 637.99 310.22 640.73 314.49 642.39 C 318.43 643.94 322.12 646.04 325.61 648.44 C 328.60 650.59 332.24 651.34 335.70 652.42 C 345.49 656.28 355.27 661.14 366.00 661.48 C 372.16 661.49 379.04 660.13 383.20 655.20 C 386.98 650.11 391.28 644.68 391.38 638.03 C 391.38 632.97 392.56 628.02 392.76 622.98 C 392.97 618.62 390.18 614.64 386.61 612.39 C 382.16 609.61 377.14 607.88 372.02 606.81 C 366.76 605.82 362.45 602.44 357.64 600.30 C 353.48 598.39 350.42 594.89 347.63 591.38 C 343.89 586.49 338.64 582.91 335.49 577.55 C 330.56 568.58 328.97 557.87 330.93 547.84 Z" />
<path fill="#cdd1d5" d=" M 502.85 552.03 C 508.43 552.49 514.39 554.60 517.50 559.56 C 520.42 564.47 519.13 570.78 515.85 575.18 C 515.53 570.61 515.02 565.96 513.24 561.71 C 511.23 557.24 506.93 554.42 502.85 552.03 Z" />
<path fill="#c9cbcd" d=" M 335.70 652.42 C 344.96 652.69 353.92 655.26 363.02 656.70 C 369.78 657.82 376.56 656.37 383.20 655.20 C 379.04 660.13 372.16 661.49 366.00 661.48 C 355.27 661.14 345.49 656.28 335.70 652.42 Z" />
<path fill="#caccce" d=" M 459.63 667.31 C 469.36 665.86 478.94 668.98 488.14 671.75 C 495.43 674.16 503.33 674.60 510.19 678.26 C 504.74 678.51 499.34 677.61 494.18 675.89 C 486.56 673.42 478.40 673.63 470.78 671.19 C 467.01 670.04 463.35 668.59 459.63 667.31 Z" />
<path fill="#765b64" d=" M 389.51 681.48 C 395.06 680.75 400.57 682.15 406.06 682.71 C 411.37 683.44 416.72 683.49 422.05 683.89 C 427.13 684.12 430.68 688.49 435.56 689.44 C 442.41 690.81 449.41 691.40 456.29 692.63 C 463.61 693.64 470.64 696.04 477.97 697.01 C 481.49 697.57 485.58 698.01 487.84 701.17 C 491.79 705.74 491.09 712.18 490.54 717.74 C 489.97 721.62 489.89 725.70 488.30 729.33 C 486.02 732.06 482.47 733.46 480.43 736.43 C 478.92 739.00 478.48 742.01 477.84 744.88 C 474.65 746.13 470.99 746.96 468.69 749.71 C 464.43 754.87 463.78 761.88 460.43 767.53 C 457.78 771.42 453.01 772.86 449.20 775.29 C 445.06 777.46 441.05 780.98 436.11 780.65 C 431.93 779.34 429.57 775.04 425.58 773.38 C 421.14 773.18 416.72 774.06 412.27 773.74 C 407.64 773.44 403.06 774.41 398.44 774.39 C 393.79 773.97 389.76 771.24 385.22 770.30 C 382.17 769.40 378.47 769.37 376.31 766.71 C 371.48 761.21 368.75 754.26 366.76 747.32 C 365.12 741.51 362.79 735.94 360.45 730.40 C 360.36 727.25 360.80 724.12 361.29 721.04 C 361.92 716.69 364.74 713.10 365.72 708.87 C 366.99 703.88 367.52 698.56 370.20 694.06 C 371.82 691.38 374.68 689.88 377.15 688.12 C 381.05 685.58 384.69 682.10 389.51 681.48 Z" />
<path fill="#ced0d3" d=" M 558.98 683.06 C 561.68 685.38 563.96 688.86 562.61 692.56 C 559.68 701.83 556.52 711.17 551.61 719.61 C 550.27 722.39 547.25 723.29 544.44 723.73 C 547.22 718.58 551.46 714.37 554.09 709.14 C 557.50 700.94 560.74 692.08 558.98 683.06 Z" />
<path fill="#978c6e" d=" M 354.36 729.42 C 356.41 728.70 358.65 729.27 360.45 730.40 C 362.79 735.94 365.12 741.51 366.76 747.32 C 368.75 754.26 371.48 761.21 376.31 766.71 C 378.47 769.37 382.17 769.40 385.22 770.30 C 389.76 771.24 393.79 773.97 398.44 774.39 C 403.06 774.41 407.64 773.44 412.27 773.74 C 416.72 774.06 421.14 773.18 425.58 773.38 C 429.57 775.04 431.93 779.34 436.11 780.65 C 441.05 780.98 445.06 777.46 449.20 775.29 C 453.01 772.86 457.78 771.42 460.43 767.53 C 463.78 761.88 464.43 754.87 468.69 749.71 C 470.99 746.96 474.65 746.13 477.84 744.88 C 478.49 746.71 479.79 748.54 479.38 750.58 C 478.03 757.84 475.09 764.73 474.02 772.05 C 473.34 776.63 475.49 781.62 472.96 785.87 C 470.65 790.12 468.18 794.36 465.02 798.04 C 463.36 800.16 460.39 799.50 458.05 799.69 C 449.75 799.29 441.48 801.09 433.21 799.95 C 424.86 798.78 416.39 800.05 408.08 798.65 C 403.77 797.96 399.42 797.80 395.08 797.44 C 391.34 797.29 388.72 794.30 385.40 793.02 C 377.03 790.11 367.67 790.61 359.70 786.51 C 355.05 784.30 353.34 779.17 350.71 775.14 C 348.20 770.99 344.26 767.21 344.41 762.00 C 344.30 754.91 343.97 747.77 344.89 740.73 C 345.44 735.47 349.44 731.07 354.36 729.42 Z" />
</svg>
